<svg viewBox="0 0 34 34" xmlns="http://www.w3.org/2000/svg">
	<g fill="white">
		<path id="mp_info_close" d="M 6,5 5,6 7.5,8.5 5,11 6,12 8.5,9.5 11,12 12,11 9.5,8.5 12,6 11,5 8.5,7.5 Z"/>
		<path id="mp_info" d="m 8.4,20.5 c -.5,.7 -.5,1.4 .1,1.8 .6,.4 2,.1 2,-1.3 0,-1.3 -1.6,-1.2 -2.1,-.5 z m -.7,2.7 c 0,0 -1.2,4.3 -1.5,5.3 -.3,1 -.4,2 .5,2.4 1,.4 3.5,-.4 3.5,-1.1 v -1 c -1.3,.6 -2.5,1.5 -2.1,0 .4,-1.5 1.6,-5.6 1.6,-5.6 z"/>
	</g>
	<g fill="none" stroke="white" transform="translate(17)">
		<path id="mp_volume" d="M 8.4,4 5.8,7 h -2 v 3 h 2 l 2.6,3 z M 11,5 c 2.5,1 2.5,6 0,7 2.5,-1 2.5,-6 0,-7 z m -1,2 c 1.4,0.4 1.4,2.6 0,3 1.4,-0.4 1.4,-2.6 0,-3 z"/>
		<path id="mp_mute" d="m 8.4,21 -2.6,3 h -2 v 3 h 2 l 2.6,3 z"/>
	</g>
</svg>